<svg xmlns="http://www.w3.org/2000/svg" width="24" height="24" viewBox="0 0 24 24">
    <path d="M12 1.27a11 11 0 00-3.48 21.46c.55.09.73-.24.73-.53v-1.85c-3.03.66-3.67-1.45-3.67-1.45-.5-1.27-1.21-1.6-1.21-1.6-.99-.67.07-.66.07-.66 1.09.08 1.67 1.12 1.67 1.12.97 1.66 2.54 1.18 3.16.9.1-.7.38-1.18.69-1.45-2.42-.27-4.96-1.21-4.96-5.38 0-1.19.42-2.16 1.12-2.92-.11-.28-.49-1.4.11-2.91 0 0 .92-.29 3 1.12a10.44 10.44 0 015.5 0c2.08-1.41 3-1.12 3-1.12.6 1.51.22 2.63.11 2.91.7.76 1.12 1.73 1.12 2.92 0 4.18-2.55 5.11-4.98 5.37.39.34.73 1 .73 2.02v3c0 .29.19.63.74.53A11 11 0 0012 1.27"/>
</svg> 